<?xml version="1.0" standalone="no"?><!DOCTYPE svg PUBLIC "-//W3C//DTD SVG 1.1//EN" "http://www.w3.org/Graphics/SVG/1.1/DTD/svg11.dtd"><svg t="1754534094253" class="icon" viewBox="0 0 1024 1024" version="1.1" xmlns="http://www.w3.org/2000/svg" p-id="6306" xmlns:xlink="http://www.w3.org/1999/xlink" width="200" height="200"><path d="M1018.922667 381.781333c-32.981333-174.293333-207.317333-195.968-207.317334-195.968H30.848c-25.770667 0-28.970667 34.048-28.970667 34.048s-3.498667 312.490667-0.938666 504.405334c6.997333 103.424 110.336 114.005333 110.336 114.005333s352.725333-0.981333 510.549333-2.090667c104.021333-18.176 114.474667-109.482667 113.408-159.317333 185.685333 10.24 316.672-120.789333 283.690667-295.082667z m-471.978667 149.802667c-53.162667 61.994667-171.136 169.642667-171.136 169.642667s-5.162667 5.077333-13.226667 0.981333c-3.242667-2.432-4.608-3.84-4.608-3.84-18.901333-18.816-143.701333-130.090667-172.117333-168.704-30.250667-41.173333-44.416-115.2-3.882667-158.293333 40.576-43.093333 128.213333-46.336 186.154667 17.365333 0 0 66.773333-76.032 147.968-41.088 81.237333 34.986667 78.165333 128.469333 30.848 183.936z m263.381333 20.394667c-39.594667 4.949333-71.765333 1.194667-71.765333 1.194666V310.784h75.52s84.096 23.509333 84.096 112.554667c0 81.621333-42.026667 113.792-87.850667 128.64z" p-id="6307"></path></svg>