<?xml version="1.0" standalone="no"?><!DOCTYPE svg PUBLIC "-//W3C//DTD SVG 1.1//EN" "http://www.w3.org/Graphics/SVG/1.1/DTD/svg11.dtd"><svg t="1754295007641" class="icon" viewBox="0 0 1024 1024" version="1.1" xmlns="http://www.w3.org/2000/svg" p-id="5807" xmlns:xlink="http://www.w3.org/1999/xlink" width="200" height="200"><path d="M339.712 483.5328c50.688 0 91.7504 38.0416 90.8288 84.48 0 46.4896-40.0384 84.48-90.8288 84.48-49.8176 0-90.88-37.9904-90.88-84.48 0-46.4384 40.1408-84.48 90.88-84.48z m325.12 0c50.7904 0 90.9312 38.0416 90.9312 84.48 0 46.4896-40.1408 84.48-90.9312 84.48-49.8176 0-90.8288-37.9904-90.8288-84.48 0-46.4384 40.0384-84.48 90.8288-84.48z m84.224 398.1824c192.0512-6.144 265.984-134.8096 265.984-134.8096 0-285.696-125.184-517.2736-125.184-517.2736-125.0816-95.744-244.224-93.0816-244.224-93.0816l-12.1344 14.1824c147.7632 46.1312 216.3712 112.6912 216.3712 112.6912a698.112 698.112 0 0 0-261.5808-85.1456 720.4352 720.4352 0 0 0-175.4624 1.6896c-5.2736 0-9.6256 0.9216-14.848 1.792-30.3616 2.7136-104.2944 14.1824-197.2224 55.9104-32.1024 15.0528-51.3024 25.7536-51.3024 25.7536s72.192-70.144 228.5568-116.224l-8.704-10.6496s-119.04-2.6112-244.224 93.184c0 0-125.0816 231.5264-125.0816 517.12 0 0 73.0112 128.6144 265.0624 134.8608 0 0 32.1024-39.8336 58.2656-73.5744-110.4384-33.792-152.064-104.7552-152.064-104.7552s8.6016 6.2464 24.2176 15.104c0.8704 0.8704 1.6896 1.792 3.4816 2.6112 2.6112 1.8944 5.2224 2.7136 7.8848 4.5056 21.7088 12.3904 43.4176 22.1184 63.3344 30.1568 35.6864 14.1824 78.2336 28.3648 127.8464 38.1952a596.48 596.48 0 0 0 225.0752 0.8192 563.2 563.2 0 0 0 125.952-38.0928 498.944 498.944 0 0 0 99.9936-52.3776s-43.4688 72.704-157.3376 105.6256c26.112 33.6896 57.4464 71.7824 57.4464 71.7824h-0.1024z" fill="#1D1929" p-id="5808"></path></svg>