<?xml version="1.0" encoding="UTF-8"?>
<svg id="_图层_2" data-name="图层 2" xmlns="http://www.w3.org/2000/svg" viewBox="0 0 241 338.75">
  <defs>
    <style>
      .cls-1 {
        fill: #9d4b26;
      }

      .cls-2 {
        fill: #e9e9e9;
      }

      .cls-3 {
        fill: #f5661e;
      }

      .cls-4 {
        fill: #f6661e;
      }

      .cls-5 {
        fill: #db5f23;
      }

      .cls-6 {
        fill: #e7ccbf;
      }

      .cls-7 {
        fill: #f8671e;
      }

      .cls-8 {
        fill: #d1d0d0;
      }

      .cls-9 {
        fill: #f7661e;
      }

      .cls-10 {
        fill: #d35d26;
      }

      .cls-11 {
        fill: #fefdfd;
      }

      .cls-12 {
        fill: #ae552b;
      }

      .cls-13 {
        fill: #f4661e;
      }

      .cls-14 {
        fill: #adadad;
      }

      .cls-15 {
        fill: #fefefe;
      }

      .cls-16 {
        fill: #ef6621;
      }

      .cls-17 {
        fill: #fdfdfd;
      }
    </style>
  </defs>
  <g id="_图层_1-2" data-name="图层 1">
    <g>
      <path class="cls-17" d="M241,0v338.75H0V0h241ZM195.5,15.75c-.27-.24-1.41.79-1.25,1.25.09.1,1.35-1.16,1.25-1.25ZM191.5,19.25c-.77.68-2.1,1.98-2.75,2.5-.53.42-.79.52-1.48,1.14-56.82,50.65-112.98,102.05-169.77,152.74-1.47,1.45-3.36,3.08-1.25,5.01,5.02,3.49,9.6,9.07,14.52,12.48,1.79,1.24,3.36,1.29,4.99-.22,50.79-55.73,100.55-112.43,151.48-168.02.8-.87,2.04-1.23,1.76-2.37,1.42-.54,2.08-1.95,3-3,.29-.33,2.46-1.95,2-2.5-1.13.34-1.73,1.57-2.5,2.25ZM204,22c-.3-.28-2.04,1.49-1.75,1.75,1.15.19,1.23-1.08,1.75-1.75ZM201.5,24.5c-.51.42-1.89,1.96-2.13,2.5-.16.38.06.75.25.75.15,0,2.01-1.91,2.14-2.12.25-.38.17-.54.24-.88.03-.13.46-.72-.13-.75-.14,0-.27.41-.37.5ZM211.75,30.5c-.9,1.31-1.62,2.7-2.5,4-22.79,33.5-47.44,65.91-70.95,98.92-10.72,15.04-21.44,30.1-32,45.25s-21.94,31.45-32.18,47.56c-.6,1.63.6,2.41,1.63,3.39,4.66,4.44,10.18,8.42,14.91,12.84.85.44,2.52.51,3.21-.23,11.18-19.75,22.34-39.52,33.43-59.32,27.55-49.17,54.45-98.76,82.46-147.67.81-1.41,1.67-2.85,2.5-4.25.6-1.02,1.85-1.95,1.75-3.25-1.13.61-1.58,1.78-2.25,2.75ZM120.31,335.44c.98,1.01,5.22,1.97,5.16-.57-.05-1.8-2.44-1.04-2.69-1.78l.2-13.43c-.62-.83-2.76-.98-2.98.22.29,2.08-.51,14.72.31,15.56ZM110.75,333.5c1.87-2.14,6.15-3.79,6.69-6.94,1.68-9.83-13.05-8.84-11.95-.68.13.96.45,1.1,1.38,1.14,2.44.1,1.17-1.94,2.27-3.51,1.28-1.83,4.48-1.5,5.01.72,1.21,5.11-8.49,6.49-8.66,10.4-.02.39.29,1.62.64,1.62h11.5c.55,0,.55-2.75,0-2.75h-6.88ZM89.75,324.75c.03-1,.18-4-1.12-4.25-2.58-.49-1.74,2.63-1.62,4.25-1.74-.04-2.89.08-2.5,2.13.25,1.29,2.34.72,2.5.87.28.27-.9,5.75.53,7.59.91,1.18,4.11,1.76,4.98.3,1.23-2.07-1.3-2.23-2.77-2.14v-5.75c4.73.84,4.69-3.78,0-3ZM75.5,331.5h6.38c.21,0,1.47-.83,1.58-1.17,1.07-3.54-2.15-5.84-5.33-5.84-8.9,0-7.82,13.94,1.89,12.15.99-.18,3.86-1.23,3.01-2.53s-3.34-.1-4.64-.11c-1.46-.02-3.09-.82-2.87-2.5ZM102.92,325.83c-1.83-1.97-7.36-2.12-7.9,1.32-.69,4.33,3.06,3.55,5.46,5,1.48.89.51,2.05-.85,2.06-1.2.01-5.38-2.38-5.13.14.29,2.94,8.87,3.28,9.48-.49.37-2.26-.79-3.44-2.74-4.23-1.08-.44-5.05-.87-3.12-2.38s2.94,1.12,4.82.34c.75-.31.38-1.33-.02-1.76ZM155.43,332.83c-1.15-.94-2.11.41-3.11.62-4.97,1.02-5.47-6.57.04-5.68,1.11.18,2.86,1.94,3.54-.26.38-1.22-2.49-2.82-3.54-2.99-8.44-1.35-9.72,12.26-.73,12,1.74-.05,6.29-1.64,3.8-3.69ZM157.75,325.12v11c0,.7,2.33.46,2.86-.64,1.1-2.25-1.28-7.68,2.51-8,4.66-.4,2.03,6.23,3,8.26.47.98,2.71,1.08,2.89-.36.16-1.27.17-6.04-.07-7.21-.33-1.62-2.94-3.61-4.59-3.66-1.22-.03-2.18.9-3,.98-.73.07-3.22-1.57-3.6-.38ZM135.25,325.75c-1.46-.77-2.12-1.15-3.87-1-7.94.69-5.64,13.22,1.64,11.63.68-.15,1.49-.87,1.86-.88,1.52-.05,3.27,3.21,3.64-1.63.22-2.82-.46-5.65-.29-8.47-.24-.7-3.3-1.28-2.97.34ZM141.68,333.04c-1.37.25-2.46,2.54-.88,3.28,3.32,1.54,3.58-3.77.88-3.28Z"/>
      <path class="cls-7" d="M209.75,35.25c-28,48.91-54.9,98.5-82.46,147.67-11.1,19.8-22.25,39.57-33.43,59.32-.69.75-2.36.67-3.21.23-4.73-4.43-10.25-8.4-14.91-12.84-1.04-.99-2.23-1.76-1.63-3.39,10.24-16.11,21.25-31.87,32.18-47.56s21.29-30.2,32-45.25c23.51-33.01,48.17-65.42,70.95-98.92l.5.75Z"/>
      <path class="cls-7" d="M189,22.5c.29,1.14-.96,1.5-1.76,2.37-50.94,55.59-100.69,112.29-151.48,168.02-1.63,1.51-3.2,1.46-4.99.22-4.92-3.41-9.51-8.99-14.52-12.48-2.11-1.93-.22-3.56,1.25-5.01,56.79-50.69,112.95-102.08,169.77-152.74.69-.62.95-.71,1.48-1.14.14.23.18.49.25.75Z"/>
      <path class="cls-9" d="M110.75,333.5h6.88c.55,0,.55,2.75,0,2.75h-11.5c-.35,0-.66-1.23-.64-1.62.17-3.91,9.87-5.28,8.66-10.4-.53-2.22-3.73-2.55-5.01-.72-1.09,1.57.18,3.61-2.27,3.51-.93-.04-1.25-.18-1.38-1.14-1.1-8.16,13.63-9.15,11.95.68-.54,3.15-4.82,4.8-6.69,6.94Z"/>
      <path class="cls-4" d="M135.25,325.75c-.33-1.62,2.73-1.04,2.97-.34-.16,2.82.51,5.66.29,8.47-.37,4.83-2.12,1.57-3.64,1.63-.36.01-1.18.73-1.86.88-7.28,1.59-9.58-10.95-1.64-11.63,1.74-.15,2.41.22,3.87,1ZM131.43,327.55c-3.14.72-3.11,6.87,1.64,5.89,3.27-.67,2.46-6.83-1.64-5.89Z"/>
      <path class="cls-3" d="M75.5,331.5c-.22,1.68,1.42,2.48,2.87,2.5,1.3.01,3.76-1.21,4.64.11s-2.02,2.34-3.01,2.53c-9.71,1.78-10.78-12.15-1.89-12.15,3.18,0,6.39,2.3,5.33,5.84-.1.34-1.37,1.17-1.58,1.17h-6.38ZM80.5,329.5c.98-3.49-5.31-2.77-5.25,0h5.25Z"/>
      <path class="cls-4" d="M157.75,325.12c.37-1.19,2.87.44,3.6.38.82-.08,1.78-1.01,3-.98,1.66.04,4.26,2.04,4.59,3.66.24,1.17.23,5.94.07,7.21-.18,1.44-2.42,1.35-2.89.36-.97-2.03,1.66-8.66-3-8.26-3.79.32-1.41,5.75-2.51,8-.54,1.1-2.86,1.34-2.86.64v-11Z"/>
      <path class="cls-4" d="M155.43,332.83c2.49,2.04-2.06,3.64-3.8,3.69-8.98.26-7.7-13.35.73-12,1.05.17,3.92,1.77,3.54,2.99-.68,2.2-2.43.44-3.54.26-5.52-.9-5.01,6.69-.04,5.68.99-.2,1.96-1.56,3.11-.62Z"/>
      <path class="cls-3" d="M102.92,325.83c.4.43.77,1.45.02,1.76-1.88.79-2.89-1.85-4.82-.34s2.05,1.94,3.12,2.38c1.94.79,3.11,1.97,2.74,4.23-.61,3.77-9.19,3.43-9.48.49-.25-2.53,3.92-.13,5.13-.14,1.36-.02,2.33-1.17.85-2.06-2.4-1.45-6.15-.68-5.46-5,.55-3.44,6.07-3.29,7.9-1.32Z"/>
      <path class="cls-3" d="M89.75,324.75c4.69-.78,4.73,3.84,0,3v5.75c1.47-.09,3.99.07,2.77,2.14-.87,1.46-4.07.87-4.98-.3-1.44-1.85-.25-7.32-.53-7.59-.16-.15-2.25.41-2.5-.87-.39-2.05.76-2.16,2.5-2.13-.12-1.63-.96-4.74,1.62-4.25,1.31.25,1.16,3.25,1.12,4.25Z"/>
      <path class="cls-13" d="M120.31,335.44c-.82-.85-.03-13.48-.31-15.56.22-1.2,2.36-1.05,2.98-.22l-.2,13.43c.25.74,2.64-.03,2.69,1.78.07,2.54-4.18,1.57-5.16.57Z"/>
      <path class="cls-16" d="M141.68,333.04c2.71-.5,2.45,4.81-.88,3.28-1.58-.73-.5-3.03.88-3.28Z"/>
      <path class="cls-10" d="M212.25,31c-.83,1.4-1.69,2.84-2.5,4.25l-.5-.75c.88-1.3,1.6-2.69,2.5-4l.5.5Z"/>
      <path class="cls-5" d="M191.5,19.25l.5.25c-.92,1.05-1.58,2.46-3,3-.07-.26-.11-.52-.25-.75.65-.52,1.98-1.82,2.75-2.5Z"/>
      <path class="cls-8" d="M202,24.75c-.07.34.01.5-.24.88-.13.21-1.99,2.11-2.14,2.12-.19,0-.42-.37-.25-.75.24-.54,1.61-2.08,2.13-2.5l.5.25Z"/>
      <path class="cls-1" d="M212.25,31l-.5-.5c.67-.97,1.11-2.14,2.25-2.75.1,1.3-1.14,2.23-1.75,3.25Z"/>
      <path class="cls-12" d="M192,19.5l-.5-.25c.77-.68,1.37-1.91,2.5-2.25.46.55-1.71,2.17-2,2.5Z"/>
      <path class="cls-14" d="M204,22c-.51.67-.6,1.93-1.75,1.75-.29-.26,1.45-2.03,1.75-1.75Z"/>
      <path class="cls-6" d="M195.5,15.75c.1.09-1.16,1.35-1.25,1.25-.16-.46.98-1.48,1.25-1.25Z"/>
      <path class="cls-2" d="M202,24.75l-.5-.25c.1-.08.24-.5.37-.5.59.02.15.61.13.75Z"/>
      <path class="cls-15" d="M131.43,327.55c4.1-.95,4.91,5.21,1.64,5.89-4.75.98-4.78-5.16-1.64-5.89Z"/>
      <path class="cls-11" d="M80.5,329.5h-5.25c-.06-2.77,6.23-3.49,5.25,0Z"/>
    </g>
  </g>
</svg>